<svg version="1.1" id="Layer_1" xmlns="http://www.w3.org/2000/svg" xmlns:xlink="http://www.w3.org/1999/xlink" x="0px" y="0px"
	 width="100%" viewBox="0 0 800 800" enable-background="new 0 0 800 800" xml:space="preserve">
<path fill="#305EFF" opacity="1.000000" stroke="none" 
	d="
M366.000000,801.000000 
	C244.000000,801.000000 122.500000,801.000000 1.000000,801.000000 
	C1.000000,534.333313 1.000000,267.666656 1.000000,1.000000 
	C267.666656,1.000000 534.333313,1.000000 801.000000,1.000000 
	C801.000000,267.666656 801.000000,534.333313 801.000000,801.000000 
	C656.166687,801.000000 511.333344,801.000000 366.000000,801.000000 
M509.440460,492.864380 
	C506.872894,485.820129 503.090759,479.532227 496.710571,475.402954 
	C481.536163,465.582092 465.130371,464.983765 448.916504,471.533875 
	C433.515076,477.755768 426.265747,490.677185 425.502777,506.947784 
	C424.576965,526.692261 433.160278,543.382935 453.523743,549.711060 
	C468.218231,554.277527 483.141571,553.532776 497.654419,548.439819 
	C501.444183,547.109985 504.762421,544.436401 508.669159,542.163574 
	C504.439148,535.414246 500.674042,529.406677 496.806641,523.235962 
	C487.399933,529.731262 477.464600,532.191528 466.641815,529.965149 
	C459.098602,528.413513 454.752228,523.616577 454.421387,516.662842 
	C456.248169,516.662842 458.056885,516.662842 459.865601,516.662842 
	C474.697449,516.662781 489.529327,516.663269 504.361176,516.662537 
	C511.942688,516.662170 512.035278,516.658875 511.853424,509.110931 
	C511.736877,504.274109 511.297852,499.445007 511.878632,494.938049 
	C515.663635,494.938049 519.448669,494.938049 523.744080,494.938049 
	C523.744080,497.325470 523.730042,499.116333 523.746460,500.906921 
	C523.833679,510.400879 523.583313,519.914124 524.115173,529.383301 
	C524.676697,539.378113 529.617859,546.918762 539.314758,550.236816 
	C552.300720,554.680359 564.751099,552.307190 577.143311,546.275879 
	C575.333130,542.435120 573.746887,538.991089 572.092285,535.580261 
	C570.376587,532.043213 568.594788,528.538269 566.840515,525.016602 
	C559.971802,528.671570 555.161804,528.099915 554.530273,523.134399 
	C553.351379,513.864807 553.348267,504.445770 552.824219,494.487823 
	C559.683655,494.487823 565.274780,494.487823 571.387451,494.487823 
	C571.387451,488.431549 571.387451,482.930542 571.387451,477.017090 
	C572.193481,477.644470 572.568604,477.786346 572.675293,478.040802 
	C582.383972,501.194366 592.119629,524.337036 601.654968,547.561951 
	C602.291931,549.113281 601.854797,551.486816 601.142822,553.145569 
	C597.798706,560.937561 594.174438,568.609070 590.669250,576.332275 
	C588.640747,580.801880 586.648376,585.287842 584.239990,590.657837 
	C593.469849,590.657837 601.738220,590.517517 609.997620,590.729797 
	C613.123474,590.810120 614.713379,589.761475 616.006348,586.907166 
	C633.092834,549.186646 650.301392,511.521332 667.462463,473.834442 
	C667.973755,472.711548 668.299072,471.503967 668.830566,469.997101 
	C659.845154,469.997101 651.349182,469.856049 642.866638,470.131256 
	C641.394592,470.178986 639.320435,471.668274 638.659119,473.039124 
	C636.498352,477.518433 634.869263,482.253632 633.022461,486.885132 
	C628.276367,498.787842 623.523254,510.687714 618.446411,523.406738 
	C617.425354,520.771545 616.727722,519.094910 616.121216,517.385925 
	C610.949707,502.815155 605.705078,488.269104 600.711060,473.637604 
	C599.721924,470.739624 598.331848,469.886475 595.371887,469.927948 
	C583.543640,470.093628 571.711792,469.996277 559.881226,469.996185 
	C557.793762,469.996155 555.706238,469.996185 553.092102,469.996185 
	C553.092102,458.699188 553.092102,448.125031 553.092102,437.393433 
	C543.138977,437.393433 533.727783,437.393433 523.622803,437.393433 
	C523.622803,448.356995 523.622803,459.064575 523.622803,470.233734 
	C518.947021,470.233734 514.963257,470.233734 510.541412,470.212708 
	C510.206421,470.382568 510.132202,470.630463 510.155060,471.886322 
	C510.155884,478.946136 510.156708,486.005920 509.440460,492.864380 
M330.944244,321.950623 
	C335.204956,321.950623 339.465637,321.950623 344.054596,321.950623 
	C344.054596,333.320190 343.893005,343.963043 344.102997,354.598572 
	C344.288727,364.005219 347.590393,372.109894 356.493622,376.410736 
	C370.393005,383.125031 383.839264,380.094025 397.481934,373.903046 
	C393.906494,366.503876 390.615143,359.692566 387.336029,352.906647 
	C378.973846,356.402924 374.737457,355.375427 374.277435,349.175201 
	C373.619263,340.304230 374.109802,331.348022 374.109802,322.256348 
	C384.048889,322.256348 393.790527,322.256348 404.053772,322.256348 
	C404.053772,333.284302 403.819031,344.073578 404.111053,354.848602 
	C404.508362,369.509186 413.957336,379.185394 428.588043,379.817596 
	C433.853760,380.045105 439.254272,379.547150 444.437286,378.560730 
	C448.843292,377.722168 453.025085,375.705627 457.600555,374.107422 
	C453.828339,366.345337 450.524902,359.547913 447.226776,352.761353 
	C439.474701,356.451843 435.001068,355.652161 434.509918,349.943420 
	C433.722687,340.793427 434.298950,331.526093 434.298950,321.849121 
	C440.039215,321.849121 445.624146,321.849121 451.644531,321.849121 
	C451.644531,314.262482 451.782349,307.127045 451.478302,300.010529 
	C451.438171,299.071289 449.190063,297.552704 447.884735,297.462921 
	C443.309143,297.148071 438.698578,297.340820 433.662048,297.340820 
	C433.662048,286.197052 433.662048,275.764526 433.662048,265.040894 
	C423.617157,265.040894 414.023468,265.040894 403.924896,265.040894 
	C403.924896,275.737854 403.924896,286.320435 403.924896,297.030457 
	C393.686371,297.030457 383.952515,297.030457 373.570129,297.030457 
	C373.570129,286.198761 373.570129,275.659515 373.570129,265.092712 
	C363.360596,265.092712 353.806793,265.092712 343.711304,265.092712 
	C343.711304,275.997192 343.711304,286.556549 343.711304,297.570557 
	C339.065979,297.570557 334.968536,297.570557 330.338013,297.570557 
	C330.338013,303.500366 330.442535,308.959015 330.279266,314.409607 
	C330.224823,316.227234 329.484711,318.024292 329.029785,319.106476 
	C326.527649,311.940094 322.103729,306.255981 315.753845,302.115326 
	C306.403442,296.018066 295.922729,294.559540 285.102173,295.234680 
	C265.703613,296.445007 252.928207,306.617065 247.051804,325.095398 
	C246.854279,325.716553 246.406998,326.258331 245.756454,327.396301 
	C241.768784,312.535980 234.431870,301.242920 219.688354,296.874817 
	C205.241852,292.594757 192.172012,295.528290 180.659790,307.059418 
	C180.659790,304.407990 180.659805,302.770447 180.659790,301.132874 
	C180.659592,283.468414 180.684189,265.803833 180.623795,248.139572 
	C180.617203,246.208466 181.615967,243.389435 178.019669,243.373993 
	C169.069901,243.335556 160.119843,243.361359 151.204651,243.361359 
	C151.204651,288.545654 151.204651,333.077209 151.204651,377.524628 
	C161.083786,377.524628 170.496841,377.524628 180.433716,377.524628 
	C180.433716,373.794281 180.433716,370.422974 180.433716,366.153839 
	C191.578430,378.860504 204.595505,382.831055 219.779617,378.333984 
	C234.960693,373.837799 242.122818,361.935913 246.224045,346.538391 
	C251.236069,364.634888 260.849152,374.414734 277.417023,378.347412 
	C290.306915,381.407104 303.282501,380.814270 315.868134,376.758240 
	C320.392426,375.300140 324.412109,372.276154 328.960724,369.804565 
	C324.497528,362.714844 320.737366,356.741852 316.927277,350.689575 
	C308.364655,357.093658 299.285217,359.055969 289.489014,358.039764 
	C280.749420,357.133179 275.243195,352.014618 274.379608,343.745239 
	C293.505920,343.745239 312.582855,343.745239 332.781281,343.745239 
	C331.805542,336.074493 330.910828,329.040588 330.944244,321.950623 
M304.053894,533.489319 
	C317.325317,511.545502 309.989899,483.653351 288.064209,472.474426 
	C278.637146,467.668030 268.598480,467.015808 258.370880,468.078308 
	C226.728943,471.365356 210.119492,507.649750 227.770630,534.132812 
	C243.540436,557.793152 287.083069,559.325500 304.053894,533.489319 
M517.840698,378.504547 
	C523.156677,376.250946 528.554626,374.162811 533.719116,371.603394 
	C534.745605,371.094727 535.776367,368.278534 535.275024,367.380829 
	C532.133484,361.754944 528.558289,356.371094 525.014282,350.728210 
	C516.492981,357.085663 507.272308,359.104614 497.329590,358.025635 
	C488.572235,357.075287 482.941223,351.679138 482.635773,343.819946 
	C501.590668,343.819946 520.533386,343.819946 539.892639,343.819946 
	C539.892639,339.501129 540.120117,335.532166 539.853882,331.596588 
	C538.604797,313.135925 527.674866,300.165680 509.891327,296.458679 
	C504.887329,295.415649 499.628937,295.069153 494.507996,295.202209 
	C472.600250,295.771240 456.019501,310.458679 454.094727,330.646484 
	C451.721680,355.536102 463.168701,373.768311 485.797760,378.206360 
	C495.855225,380.178864 506.594696,378.674103 517.840698,378.504547 
M158.624161,525.039673 
	C157.553375,525.448364 155.907196,525.552429 155.503754,526.314453 
	C152.556534,531.881165 149.858810,537.579895 147.109985,543.180664 
	C161.677155,554.811890 195.196945,555.373108 209.882492,544.889954 
	C222.196045,536.100037 224.743546,511.486511 205.537689,504.018402 
	C201.524094,502.457733 197.326111,501.368835 193.206085,500.085052 
	C190.038345,499.097931 186.640259,498.556976 183.768509,497.023743 
	C182.061737,496.112427 180.263626,493.687897 180.216049,491.898254 
	C180.179474,490.522797 182.622787,488.751190 184.317841,487.765442 
	C185.650116,486.990601 187.601334,486.700531 189.143921,486.967529 
	C195.722427,488.106140 202.251236,489.531769 209.497116,490.993683 
	C212.122421,486.232666 215.277130,480.511536 218.832611,474.063629 
	C213.565430,472.378448 209.248932,470.627106 204.764618,469.632202 
	C191.350540,466.656097 177.960983,466.276672 165.119354,472.099670 
	C157.269547,475.659149 151.548569,481.167389 151.121979,490.515289 
	C150.670441,500.409698 155.183929,507.526733 163.772018,511.965942 
	C167.422653,513.852905 171.482452,514.981140 175.412766,516.283813 
	C178.563980,517.328186 182.039642,517.659302 184.918671,519.169800 
	C186.989960,520.256531 189.850204,523.010315 189.598587,524.577393 
	C189.258987,526.692444 186.462906,528.655579 184.343918,530.149048 
	C183.122040,531.010315 181.167587,530.928162 179.525223,531.080322 
	C172.054077,531.772644 165.431793,529.340210 158.624161,525.039673 
M385.586060,474.771667 
	C374.775208,467.889587 362.788788,466.614716 350.501892,468.157654 
	C335.216309,470.077179 322.601196,477.004639 316.423035,491.673828 
	C310.124573,506.628693 310.743774,521.803101 320.560944,535.346252 
	C330.219543,548.670654 344.451447,552.538574 360.127502,552.386902 
	C369.756317,552.293762 378.813324,550.176453 387.044952,544.080627 
	C382.453705,537.270874 378.016754,530.689941 373.603394,524.144043 
	C360.648773,530.643005 352.242767,530.051086 345.830627,522.359619 
	C340.147614,515.542786 339.614990,505.043945 345.371490,498.430084 
	C347.848083,495.584564 351.502686,493.273254 355.078156,491.981720 
	C361.667542,489.601471 367.691864,492.373596 373.327179,496.184052 
	C377.107605,490.662201 380.674744,485.454132 384.238647,480.243805 
	C384.802094,479.420105 385.499115,478.645447 385.860809,477.738953 
	C386.170441,476.962982 386.087952,476.030487 385.586060,474.771667 
M572.664490,350.501831 
	C572.741089,345.510895 572.522034,340.494049 572.956055,335.534393 
	C573.850708,325.310272 581.875916,318.158386 591.380432,319.436798 
	C595.498108,319.990631 599.419556,322.002930 603.762146,323.464478 
	C607.270935,316.107697 610.968140,308.355743 614.782166,300.358917 
	C607.774902,295.696381 600.459778,294.434143 592.640259,295.408386 
	C584.733643,296.393494 578.544373,300.553497 572.937317,306.945709 
	C572.719849,303.346832 572.554138,300.603821 572.373535,297.614563 
	C562.402466,297.614563 552.842224,297.614563 543.015686,297.614563 
	C543.015686,324.433746 543.015686,350.990448 543.015686,377.608765 
	C552.884399,377.608765 562.471558,377.608765 572.664429,377.608765 
	C572.664429,368.728851 572.664429,360.114960 572.664490,350.501831 
M419.662415,500.500214 
	C419.662415,490.414520 419.662415,480.328857 419.662415,470.281616 
	C409.275696,470.281616 399.690613,470.281616 390.093445,470.281616 
	C390.093445,496.962280 390.093445,523.353516 390.093445,549.691772 
	C400.035522,549.691772 409.619293,549.691772 419.089355,549.691772 
	C419.325470,549.080383 419.543365,548.778503 419.544342,548.475952 
	C419.595306,532.817444 419.627838,517.158813 419.662415,500.500214 
M417.240112,425.286835 
	C410.185822,419.372986 402.657837,418.360748 396.172668,422.454132 
	C389.730164,426.520599 386.507416,434.437164 388.620331,441.525726 
	C390.667267,448.392914 395.429382,452.486877 402.410889,453.742249 
	C409.209015,454.964691 416.329773,451.533569 419.759766,445.342926 
	C423.570374,438.465179 422.613281,431.897491 417.240112,425.286835 
z"/>
<path fill="#FDFDFF" opacity="1.000000" stroke="none" 
	d="
M330.016113,322.006683 
	C330.910828,329.040588 331.805542,336.074493 332.781281,343.745239 
	C312.582855,343.745239 293.505920,343.745239 274.379608,343.745239 
	C275.243195,352.014618 280.749420,357.133179 289.489014,358.039764 
	C299.285217,359.055969 308.364655,357.093658 316.927277,350.689575 
	C320.737366,356.741852 324.497528,362.714844 328.960724,369.804565 
	C324.412109,372.276154 320.392426,375.300140 315.868134,376.758240 
	C303.282501,380.814270 290.306915,381.407104 277.417023,378.347412 
	C260.849152,374.414734 251.236069,364.634888 246.224045,346.538391 
	C242.122818,361.935913 234.960693,373.837799 219.779617,378.333984 
	C204.595505,382.831055 191.578430,378.860504 180.433716,366.153839 
	C180.433716,370.422974 180.433716,373.794281 180.433716,377.524628 
	C170.496841,377.524628 161.083786,377.524628 151.204651,377.524628 
	C151.204651,333.077209 151.204651,288.545654 151.204651,243.361359 
	C160.119843,243.361359 169.069901,243.335556 178.019669,243.373993 
	C181.615967,243.389435 180.617203,246.208466 180.623795,248.139572 
	C180.684189,265.803833 180.659592,283.468414 180.659790,301.132874 
	C180.659805,302.770447 180.659790,304.407990 180.659790,307.059418 
	C192.172012,295.528290 205.241852,292.594757 219.688354,296.874817 
	C234.431870,301.242920 241.768784,312.535980 245.756454,327.396301 
	C246.406998,326.258331 246.854279,325.716553 247.051804,325.095398 
	C252.928207,306.617065 265.703613,296.445007 285.102173,295.234680 
	C295.922729,294.559540 306.403442,296.018066 315.753845,302.115326 
	C322.103729,306.255981 326.527649,311.940094 329.102753,319.764587 
	C329.455841,320.950714 329.735992,321.478699 330.016113,322.006683 
M213.572647,326.120453 
	C212.919540,325.367981 212.323349,324.555634 211.604401,323.872467 
	C205.672684,318.236115 196.962585,317.150269 189.927628,321.139282 
	C182.700027,325.237579 179.105942,334.192932 181.271606,342.707306 
	C183.284821,350.622192 190.050385,356.053345 198.285187,356.322662 
	C205.153244,356.547272 210.722488,353.964447 214.243973,348.016815 
	C218.408997,340.982330 218.145172,333.788818 213.572647,326.120453 
M284.816193,316.015594 
	C279.082336,317.824829 275.758240,321.603577 274.795013,327.895325 
	C284.657227,327.895325 294.046143,327.895325 303.460938,327.895325 
	C302.360809,318.305511 296.199799,314.230988 284.816193,316.015594 
z"/>
<path fill="#FDFEFF" opacity="1.000000" stroke="none" 
	d="
M510.979492,470.233734 
	C514.963257,470.233734 518.947021,470.233734 523.622803,470.233734 
	C523.622803,459.064575 523.622803,448.356995 523.622803,437.393433 
	C533.727783,437.393433 543.138977,437.393433 553.092102,437.393433 
	C553.092102,448.125031 553.092102,458.699188 553.092102,469.996185 
	C555.706238,469.996185 557.793762,469.996155 559.881226,469.996185 
	C571.711792,469.996277 583.543640,470.093628 595.371887,469.927948 
	C598.331848,469.886475 599.721924,470.739624 600.711060,473.637604 
	C605.705078,488.269104 610.949707,502.815155 616.121216,517.385925 
	C616.727722,519.094910 617.425354,520.771545 618.446411,523.406738 
	C623.523254,510.687714 628.276367,498.787842 633.022461,486.885132 
	C634.869263,482.253632 636.498352,477.518433 638.659119,473.039124 
	C639.320435,471.668274 641.394592,470.178986 642.866638,470.131256 
	C651.349182,469.856049 659.845154,469.997101 668.830566,469.997101 
	C668.299072,471.503967 667.973755,472.711548 667.462463,473.834442 
	C650.301392,511.521332 633.092834,549.186646 616.006348,586.907166 
	C614.713379,589.761475 613.123474,590.810120 609.997620,590.729797 
	C601.738220,590.517517 593.469849,590.657837 584.239990,590.657837 
	C586.648376,585.287842 588.640747,580.801880 590.669250,576.332275 
	C594.174438,568.609070 597.798706,560.937561 601.142822,553.145569 
	C601.854797,551.486816 602.291931,549.113281 601.654968,547.561951 
	C592.119629,524.337036 582.383972,501.194366 572.675293,478.040802 
	C572.568604,477.786346 572.193481,477.644470 571.387451,477.017090 
	C571.387451,482.930542 571.387451,488.431549 571.387451,494.487823 
	C565.274780,494.487823 559.683655,494.487823 552.824219,494.487823 
	C553.348267,504.445770 553.351379,513.864807 554.530273,523.134399 
	C555.161804,528.099915 559.971802,528.671570 566.840515,525.016602 
	C568.594788,528.538269 570.376587,532.043213 572.092285,535.580261 
	C573.746887,538.991089 575.333130,542.435120 577.143311,546.275879 
	C564.751099,552.307190 552.300720,554.680359 539.314758,550.236816 
	C529.617859,546.918762 524.676697,539.378113 524.115173,529.383301 
	C523.583313,519.914124 523.833679,510.400879 523.746460,500.906921 
	C523.730042,499.116333 523.744080,497.325470 523.744080,494.938049 
	C519.448669,494.938049 515.663635,494.938049 511.378479,494.560486 
	C510.638062,493.810516 510.397797,493.438110 510.157501,493.065735 
	C510.156708,486.005920 510.155884,478.946136 510.360229,471.313477 
	C510.721832,470.586670 510.859863,470.417694 510.979492,470.233734 
z"/>
<path fill="#FCFDFF" opacity="1.000000" stroke="none" 
	d="
M330.480164,321.978638 
	C329.735992,321.478699 329.455841,320.950714 329.116882,320.126740 
	C329.484711,318.024292 330.224823,316.227234 330.279266,314.409607 
	C330.442535,308.959015 330.338013,303.500366 330.338013,297.570557 
	C334.968536,297.570557 339.065979,297.570557 343.711304,297.570557 
	C343.711304,286.556549 343.711304,275.997192 343.711304,265.092712 
	C353.806793,265.092712 363.360596,265.092712 373.570129,265.092712 
	C373.570129,275.659515 373.570129,286.198761 373.570129,297.030457 
	C383.952515,297.030457 393.686371,297.030457 403.924896,297.030457 
	C403.924896,286.320435 403.924896,275.737854 403.924896,265.040894 
	C414.023468,265.040894 423.617157,265.040894 433.662048,265.040894 
	C433.662048,275.764526 433.662048,286.197052 433.662048,297.340820 
	C438.698578,297.340820 443.309143,297.148071 447.884735,297.462921 
	C449.190063,297.552704 451.438171,299.071289 451.478302,300.010529 
	C451.782349,307.127045 451.644531,314.262482 451.644531,321.849121 
	C445.624146,321.849121 440.039215,321.849121 434.298950,321.849121 
	C434.298950,331.526093 433.722687,340.793427 434.509918,349.943420 
	C435.001068,355.652161 439.474701,356.451843 447.226776,352.761353 
	C450.524902,359.547913 453.828339,366.345337 457.600555,374.107422 
	C453.025085,375.705627 448.843292,377.722168 444.437286,378.560730 
	C439.254272,379.547150 433.853760,380.045105 428.588043,379.817596 
	C413.957336,379.185394 404.508362,369.509186 404.111053,354.848602 
	C403.819031,344.073578 404.053772,333.284302 404.053772,322.256348 
	C393.790527,322.256348 384.048889,322.256348 374.109802,322.256348 
	C374.109802,331.348022 373.619263,340.304230 374.277435,349.175201 
	C374.737457,355.375427 378.973846,356.402924 387.336029,352.906647 
	C390.615143,359.692566 393.906494,366.503876 397.481934,373.903046 
	C383.839264,380.094025 370.393005,383.125031 356.493622,376.410736 
	C347.590393,372.109894 344.288727,364.005219 344.102997,354.598572 
	C343.893005,343.963043 344.054596,333.320190 344.054596,321.950623 
	C339.465637,321.950623 335.204956,321.950623 330.480164,321.978638 
z"/>
<path fill="#FDFDFF" opacity="1.000000" stroke="none" 
	d="
M303.867249,533.800903 
	C287.083069,559.325500 243.540436,557.793152 227.770630,534.132812 
	C210.119492,507.649750 226.728943,471.365356 258.370880,468.078308 
	C268.598480,467.015808 278.637146,467.668030 288.064209,472.474426 
	C309.989899,483.653351 317.325317,511.545502 303.867249,533.800903 
M254.363235,523.125000 
	C260.887024,528.694763 269.786591,529.308655 275.893036,524.610168 
	C282.233795,519.731323 284.186798,508.830444 280.146271,500.870544 
	C276.591888,493.868347 269.054108,490.737366 261.095459,492.957245 
	C249.465866,496.201111 245.662384,511.754730 254.363235,523.125000 
z"/>
<path fill="#FCFDFF" opacity="1.000000" stroke="none" 
	d="
M509.798981,492.965057 
	C510.397797,493.438110 510.638062,493.810516 510.940857,494.397675 
	C511.297852,499.445007 511.736877,504.274109 511.853424,509.110931 
	C512.035278,516.658875 511.942688,516.662170 504.361176,516.662537 
	C489.529327,516.663269 474.697449,516.662781 459.865601,516.662842 
	C458.056885,516.662842 456.248169,516.662842 454.421387,516.662842 
	C454.752228,523.616577 459.098602,528.413513 466.641815,529.965149 
	C477.464600,532.191528 487.399933,529.731262 496.806641,523.235962 
	C500.674042,529.406677 504.439148,535.414246 508.669159,542.163574 
	C504.762421,544.436401 501.444183,547.109985 497.654419,548.439819 
	C483.141571,553.532776 468.218231,554.277527 453.523743,549.711060 
	C433.160278,543.382935 424.576965,526.692261 425.502777,506.947784 
	C426.265747,490.677185 433.515076,477.755768 448.916504,471.533875 
	C465.130371,464.983765 481.536163,465.582092 496.710571,475.402954 
	C503.090759,479.532227 506.872894,485.820129 509.798981,492.965057 
M478.100708,500.772247 
	C479.723785,500.772247 481.346832,500.772247 482.967407,500.772247 
	C482.962250,492.268219 477.115509,487.393066 468.058624,487.873413 
	C460.290222,488.285370 454.737274,493.779327 455.433838,500.772278 
	C462.659515,500.772278 469.927185,500.772278 478.100708,500.772247 
z"/>
<path fill="#FDFDFF" opacity="1.000000" stroke="none" 
	d="
M517.432617,378.626099 
	C506.594696,378.674103 495.855225,380.178864 485.797760,378.206360 
	C463.168701,373.768311 451.721680,355.536102 454.094727,330.646484 
	C456.019501,310.458679 472.600250,295.771240 494.507996,295.202209 
	C499.628937,295.069153 504.887329,295.415649 509.891327,296.458679 
	C527.674866,300.165680 538.604797,313.135925 539.853882,331.596588 
	C540.120117,335.532166 539.892639,339.501129 539.892639,343.819946 
	C520.533386,343.819946 501.590668,343.819946 482.635773,343.819946 
	C482.941223,351.679138 488.572235,357.075287 497.329590,358.025635 
	C507.272308,359.104614 516.492981,357.085663 525.014282,350.728210 
	C528.558289,356.371094 532.133484,361.754944 535.275024,367.380829 
	C535.776367,368.278534 534.745605,371.094727 533.719116,371.603394 
	C528.554626,374.162811 523.156677,376.250946 517.432617,378.626099 
M509.063629,320.556671 
	C504.097748,315.425690 497.792938,313.923248 491.420410,316.539276 
	C486.460236,318.575500 483.529846,322.204193 482.961609,327.886230 
	C492.755096,327.886230 502.160828,327.886230 512.250366,327.886230 
	C511.223145,325.350586 510.372925,323.251953 509.063629,320.556671 
z"/>
<path fill="#FDFDFF" opacity="1.000000" stroke="none" 
	d="
M158.929047,525.231323 
	C165.431793,529.340210 172.054077,531.772644 179.525223,531.080322 
	C181.167587,530.928162 183.122040,531.010315 184.343918,530.149048 
	C186.462906,528.655579 189.258987,526.692444 189.598587,524.577393 
	C189.850204,523.010315 186.989960,520.256531 184.918671,519.169800 
	C182.039642,517.659302 178.563980,517.328186 175.412766,516.283813 
	C171.482452,514.981140 167.422653,513.852905 163.772018,511.965942 
	C155.183929,507.526733 150.670441,500.409698 151.121979,490.515289 
	C151.548569,481.167389 157.269547,475.659149 165.119354,472.099670 
	C177.960983,466.276672 191.350540,466.656097 204.764618,469.632202 
	C209.248932,470.627106 213.565430,472.378448 218.832611,474.063629 
	C215.277130,480.511536 212.122421,486.232666 209.497116,490.993683 
	C202.251236,489.531769 195.722427,488.106140 189.143921,486.967529 
	C187.601334,486.700531 185.650116,486.990601 184.317841,487.765442 
	C182.622787,488.751190 180.179474,490.522797 180.216049,491.898254 
	C180.263626,493.687897 182.061737,496.112427 183.768509,497.023743 
	C186.640259,498.556976 190.038345,499.097931 193.206085,500.085052 
	C197.326111,501.368835 201.524094,502.457733 205.537689,504.018402 
	C224.743546,511.486511 222.196045,536.100037 209.882492,544.889954 
	C195.196945,555.373108 161.677155,554.811890 147.109985,543.180664 
	C149.858810,537.579895 152.556534,531.881165 155.503754,526.314453 
	C155.907196,525.552429 157.553375,525.448364 158.929047,525.231323 
z"/>
<path fill="#FDFDFF" opacity="1.000000" stroke="none" 
	d="
M385.882507,474.969452 
	C386.087952,476.030487 386.170441,476.962982 385.860809,477.738953 
	C385.499115,478.645447 384.802094,479.420105 384.238647,480.243805 
	C380.674744,485.454132 377.107605,490.662201 373.327179,496.184052 
	C367.691864,492.373596 361.667542,489.601471 355.078156,491.981720 
	C351.502686,493.273254 347.848083,495.584564 345.371490,498.430084 
	C339.614990,505.043945 340.147614,515.542786 345.830627,522.359619 
	C352.242767,530.051086 360.648773,530.643005 373.603394,524.144043 
	C378.016754,530.689941 382.453705,537.270874 387.044952,544.080627 
	C378.813324,550.176453 369.756317,552.293762 360.127502,552.386902 
	C344.451447,552.538574 330.219543,548.670654 320.560944,535.346252 
	C310.743774,521.803101 310.124573,506.628693 316.423035,491.673828 
	C322.601196,477.004639 335.216309,470.077179 350.501892,468.157654 
	C362.788788,466.614716 374.775208,467.889587 385.882507,474.969452 
z"/>
<path fill="#FCFCFF" opacity="1.000000" stroke="none" 
	d="
M572.664429,351.001465 
	C572.664429,360.114960 572.664429,368.728851 572.664429,377.608765 
	C562.471558,377.608765 552.884399,377.608765 543.015686,377.608765 
	C543.015686,350.990448 543.015686,324.433746 543.015686,297.614563 
	C552.842224,297.614563 562.402466,297.614563 572.373535,297.614563 
	C572.554138,300.603821 572.719849,303.346832 572.937317,306.945709 
	C578.544373,300.553497 584.733643,296.393494 592.640259,295.408386 
	C600.459778,294.434143 607.774902,295.696381 614.782166,300.358917 
	C610.968140,308.355743 607.270935,316.107697 603.762146,323.464478 
	C599.419556,322.002930 595.498108,319.990631 591.380432,319.436798 
	C581.875916,318.158386 573.850708,325.310272 572.956055,335.534393 
	C572.522034,340.494049 572.741089,345.510895 572.664429,351.001465 
z"/>
<path fill="#FCFDFF" opacity="1.000000" stroke="none" 
	d="
M419.662354,501.000244 
	C419.627838,517.158813 419.595306,532.817444 419.544342,548.475952 
	C419.543365,548.778503 419.325470,549.080383 419.089355,549.691772 
	C409.619293,549.691772 400.035522,549.691772 390.093445,549.691772 
	C390.093445,523.353516 390.093445,496.962280 390.093445,470.281616 
	C399.690613,470.281616 409.275696,470.281616 419.662415,470.281616 
	C419.662415,480.328857 419.662415,490.414520 419.662354,501.000244 
z"/>
<path fill="#FCFDFF" opacity="1.000000" stroke="none" 
	d="
M417.481995,425.559875 
	C422.613281,431.897491 423.570374,438.465179 419.759766,445.342926 
	C416.329773,451.533569 409.209015,454.964691 402.410889,453.742249 
	C395.429382,452.486877 390.667267,448.392914 388.620331,441.525726 
	C386.507416,434.437164 389.730164,426.520599 396.172668,422.454132 
	C402.657837,418.360748 410.185822,419.372986 417.481995,425.559875 
z"/>
<path fill="#FCFDFF" opacity="1.000000" stroke="none" 
	d="
M510.760437,470.223206 
	C510.859863,470.417694 510.721832,470.586670 510.442078,470.848572 
	C510.132202,470.630463 510.206421,470.382568 510.760437,470.223206 
z"/>
<path fill="#325FFF" opacity="1.000000" stroke="none" 
	d="
M213.775269,326.435455 
	C218.145172,333.788818 218.408997,340.982330 214.243973,348.016815 
	C210.722488,353.964447 205.153244,356.547272 198.285187,356.322662 
	C190.050385,356.053345 183.284821,350.622192 181.271606,342.707306 
	C179.105942,334.192932 182.700027,325.237579 189.927628,321.139282 
	C196.962585,317.150269 205.672684,318.236115 211.604401,323.872467 
	C212.323349,324.555634 212.919540,325.367981 213.775269,326.435455 
z"/>
<path fill="#3461FF" opacity="1.000000" stroke="none" 
	d="
M285.207397,315.942749 
	C296.199799,314.230988 302.360809,318.305511 303.460938,327.895325 
	C294.046143,327.895325 284.657227,327.895325 274.795013,327.895325 
	C275.758240,321.603577 279.082336,317.824829 285.207397,315.942749 
z"/>
<path fill="#3360FF" opacity="1.000000" stroke="none" 
	d="
M254.105347,522.860840 
	C245.662384,511.754730 249.465866,496.201111 261.095459,492.957245 
	C269.054108,490.737366 276.591888,493.868347 280.146271,500.870544 
	C284.186798,508.830444 282.233795,519.731323 275.893036,524.610168 
	C269.786591,529.308655 260.887024,528.694763 254.105347,522.860840 
z"/>
<path fill="#3965FF" opacity="1.000000" stroke="none" 
	d="
M477.647797,500.772278 
	C469.927185,500.772278 462.659515,500.772278 455.433838,500.772278 
	C454.737274,493.779327 460.290222,488.285370 468.058624,487.873413 
	C477.115509,487.393066 482.962250,492.268219 482.967407,500.772247 
	C481.346832,500.772247 479.723785,500.772247 477.647797,500.772278 
z"/>
<path fill="#3460FF" opacity="1.000000" stroke="none" 
	d="
M509.293152,320.854980 
	C510.372925,323.251953 511.223145,325.350586 512.250366,327.886230 
	C502.160828,327.886230 492.755096,327.886230 482.961609,327.886230 
	C483.529846,322.204193 486.460236,318.575500 491.420410,316.539276 
	C497.792938,313.923248 504.097748,315.425690 509.293152,320.854980 
z"/>
</svg>